<svg id="visual" viewBox="0 0 960 540" width="960" height="540" xmlns="http://www.w3.org/2000/svg" xmlns:xlink="http://www.w3.org/1999/xlink" version="1.1"><rect x="0" y="0" width="960" height="540" fill="#ededed"></rect><path d="M0 299L22.8 283.5C45.7 268 91.3 237 137 246.8C182.7 256.7 228.3 307.3 274 332C319.7 356.7 365.3 355.3 411.2 348.8C457 342.3 503 330.7 548.8 311.2C594.7 291.7 640.3 264.3 686 263.8C731.7 263.3 777.3 289.7 823 293.2C868.7 296.7 914.3 277.3 937.2 267.7L960 258L960 0L937.2 0C914.3 0 868.7 0 823 0C777.3 0 731.7 0 686 0C640.3 0 594.7 0 548.8 0C503 0 457 0 411.2 0C365.3 0 319.7 0 274 0C228.3 0 182.7 0 137 0C91.3 0 45.7 0 22.8 0L0 0Z" fill="#e3e5ff"></path><path d="M0 273L22.8 278.8C45.7 284.7 91.3 296.3 137 285C182.7 273.7 228.3 239.3 274 240.3C319.7 241.3 365.3 277.7 411.2 282.5C457 287.3 503 260.7 548.8 256.7C594.7 252.7 640.3 271.3 686 286.3C731.7 301.3 777.3 312.7 823 294C868.7 275.3 914.3 226.7 937.2 202.3L960 178L960 0L937.2 0C914.3 0 868.7 0 823 0C777.3 0 731.7 0 686 0C640.3 0 594.7 0 548.8 0C503 0 457 0 411.2 0C365.3 0 319.7 0 274 0C228.3 0 182.7 0 137 0C91.3 0 45.7 0 22.8 0L0 0Z" fill="#dddfff"></path><path d="M0 251L22.8 235.8C45.7 220.7 91.3 190.3 137 195.5C182.7 200.7 228.3 241.3 274 259.5C319.7 277.7 365.3 273.3 411.2 263.8C457 254.3 503 239.7 548.8 221.5C594.7 203.3 640.3 181.7 686 177.8C731.7 174 777.3 188 823 202.7C868.7 217.3 914.3 232.7 937.2 240.3L960 248L960 0L937.2 0C914.3 0 868.7 0 823 0C777.3 0 731.7 0 686 0C640.3 0 594.7 0 548.8 0C503 0 457 0 411.2 0C365.3 0 319.7 0 274 0C228.3 0 182.7 0 137 0C91.3 0 45.7 0 22.8 0L0 0Z" fill="#d6daff"></path><path d="M0 221L22.8 211.3C45.7 201.7 91.3 182.3 137 171C182.7 159.7 228.3 156.3 274 165.3C319.7 174.3 365.3 195.7 411.2 196C457 196.3 503 175.7 548.8 166.3C594.7 157 640.3 159 686 162C731.7 165 777.3 169 823 182C868.7 195 914.3 217 937.2 228L960 239L960 0L937.2 0C914.3 0 868.7 0 823 0C777.3 0 731.7 0 686 0C640.3 0 594.7 0 548.8 0C503 0 457 0 411.2 0C365.3 0 319.7 0 274 0C228.3 0 182.7 0 137 0C91.3 0 45.7 0 22.8 0L0 0Z" fill="#d0d4ff"></path><path d="M0 158L22.8 156.3C45.7 154.7 91.3 151.3 137 153.8C182.7 156.3 228.3 164.7 274 157.7C319.7 150.7 365.3 128.3 411.2 131.7C457 135 503 164 548.8 175C594.7 186 640.3 179 686 162.5C731.7 146 777.3 120 823 115.3C868.7 110.7 914.3 127.3 937.2 135.7L960 144L960 0L937.2 0C914.3 0 868.7 0 823 0C777.3 0 731.7 0 686 0C640.3 0 594.7 0 548.8 0C503 0 457 0 411.2 0C365.3 0 319.7 0 274 0C228.3 0 182.7 0 137 0C91.3 0 45.7 0 22.8 0L0 0Z" fill="#caceff"></path><path d="M0 137L22.8 135.2C45.7 133.3 91.3 129.7 137 130.3C182.7 131 228.3 136 274 128.2C319.7 120.3 365.3 99.7 411.2 95.5C457 91.3 503 103.7 548.8 110C594.7 116.3 640.3 116.7 686 114.3C731.7 112 777.3 107 823 102C868.7 97 914.3 92 937.2 89.5L960 87L960 0L937.2 0C914.3 0 868.7 0 823 0C777.3 0 731.7 0 686 0C640.3 0 594.7 0 548.8 0C503 0 457 0 411.2 0C365.3 0 319.7 0 274 0C228.3 0 182.7 0 137 0C91.3 0 45.7 0 22.8 0L0 0Z" fill="#c3c8ff"></path><path d="M0 57L22.8 55C45.7 53 91.3 49 137 52.5C182.7 56 228.3 67 274 73.7C319.7 80.3 365.3 82.7 411.2 86.5C457 90.3 503 95.7 548.8 96.8C594.7 98 640.3 95 686 87.8C731.7 80.7 777.3 69.3 823 62C868.7 54.7 914.3 51.3 937.2 49.7L960 48L960 0L937.2 0C914.3 0 868.7 0 823 0C777.3 0 731.7 0 686 0C640.3 0 594.7 0 548.8 0C503 0 457 0 411.2 0C365.3 0 319.7 0 274 0C228.3 0 182.7 0 137 0C91.3 0 45.7 0 22.8 0L0 0Z" fill="#bdc3ff"></path><path d="M0 64L22.8 62.3C45.7 60.7 91.3 57.3 137 55C182.7 52.7 228.3 51.3 274 48C319.7 44.7 365.3 39.3 411.2 36.7C457 34 503 34 548.8 40.7C594.7 47.3 640.3 60.7 686 60.8C731.7 61 777.3 48 823 44.7C868.7 41.3 914.3 47.7 937.2 50.8L960 54L960 0L937.2 0C914.3 0 868.7 0 823 0C777.3 0 731.7 0 686 0C640.3 0 594.7 0 548.8 0C503 0 457 0 411.2 0C365.3 0 319.7 0 274 0C228.3 0 182.7 0 137 0C91.3 0 45.7 0 22.8 0L0 0Z" fill="#b6bdff"></path></svg>