<svg id="visual" viewBox="0 0 900 600" width="900" height="600" xmlns="http://www.w3.org/2000/svg" xmlns:xlink="http://www.w3.org/1999/xlink" version="1.1"><rect x="0" y="0" width="900" height="600" fill="#aab3fe"></rect><defs><linearGradient id="grad1_0" x1="33.3%" y1="0%" x2="100%" y2="100%"><stop offset="20%" stop-color="#aab3fe" stop-opacity="1"></stop><stop offset="80%" stop-color="#aab3fe" stop-opacity="1"></stop></linearGradient></defs><defs><linearGradient id="grad2_0" x1="0%" y1="0%" x2="66.7%" y2="100%"><stop offset="20%" stop-color="#aab3fe" stop-opacity="1"></stop><stop offset="80%" stop-color="#aab3fe" stop-opacity="1"></stop></linearGradient></defs><g transform="translate(900, 0)"><path d="M0 378.6C-26 344.1 -51.9 309.6 -79.7 297.5C-107.5 285.4 -137.2 295.8 -171.5 297C-205.8 298.3 -244.8 290.3 -267.7 267.7C-290.6 245.1 -297.3 207.8 -304.8 176C-312.4 144.2 -320.8 117.7 -333.2 89.3C-345.7 60.9 -362.1 30.4 -378.6 0L0 0Z" fill="#8b99ff"></path></g><g transform="translate(0, 600)"><path d="M0 -378.6C24.6 -347.2 49.2 -315.8 83.9 -313C118.5 -310.1 163.2 -335.8 188 -325.6C212.8 -315.4 217.9 -269.3 244 -244C270.1 -218.6 317.2 -214.1 327.9 -189.3C338.5 -164.5 312.5 -119.3 314.9 -84.4C317.3 -49.4 347.9 -24.7 378.6 0L0 0Z" fill="#8b99ff"></path></g></svg>