<svg id="visual" viewBox="0 0 960 540" width="960" height="540" xmlns="http://www.w3.org/2000/svg" xmlns:xlink="http://www.w3.org/1999/xlink" version="1.1"><path d="M0 44L14.5 45.8C29 47.7 58 51.3 87.2 50.5C116.3 49.7 145.7 44.3 174.8 45.2C204 46 233 53 262 57.5C291 62 320 64 349 60.5C378 57 407 48 436.2 48C465.3 48 494.7 57 523.8 62.3C553 67.7 582 69.3 611 69.3C640 69.3 669 67.7 698 65C727 62.3 756 58.7 785.2 58.7C814.3 58.7 843.7 62.3 872.8 70.5C902 78.7 931 91.3 945.5 97.7L960 104L960 0L945.5 0C931 0 902 0 872.8 0C843.7 0 814.3 0 785.2 0C756 0 727 0 698 0C669 0 640 0 611 0C582 0 553 0 523.8 0C494.7 0 465.3 0 436.2 0C407 0 378 0 349 0C320 0 291 0 262 0C233 0 204 0 174.8 0C145.7 0 116.3 0 87.2 0C58 0 29 0 14.5 0L0 0Z" fill="#adb5fa"></path><path d="M0 131L14.5 130C29 129 58 127 87.2 118.8C116.3 110.7 145.7 96.3 174.8 96.3C204 96.3 233 110.7 262 113.3C291 116 320 107 349 107C378 107 407 116 436.2 120.5C465.3 125 494.7 125 523.8 129.5C553 134 582 143 611 147.5C640 152 669 152 698 145.7C727 139.3 756 126.7 785.2 118.7C814.3 110.7 843.7 107.3 872.8 113.7C902 120 931 136 945.5 144L960 152L960 102L945.5 95.7C931 89.3 902 76.7 872.8 68.5C843.7 60.3 814.3 56.7 785.2 56.7C756 56.7 727 60.3 698 63C669 65.7 640 67.3 611 67.3C582 67.3 553 65.7 523.8 60.3C494.7 55 465.3 46 436.2 46C407 46 378 55 349 58.5C320 62 291 60 262 55.5C233 51 204 44 174.8 43.2C145.7 42.3 116.3 47.7 87.2 48.5C58 49.3 29 45.7 14.5 43.8L0 42Z" fill="#d7d8f2"></path><path d="M0 287L14.5 296C29 305 58 323 87.2 310.5C116.3 298 145.7 255 174.8 250.5C204 246 233 280 262 290.7C291 301.3 320 288.7 349 273.3C378 258 407 240 436.2 229.3C465.3 218.7 494.7 215.3 523.8 237.8C553 260.3 582 308.7 611 320.3C640 332 669 307 698 298C727 289 756 296 785.2 308.5C814.3 321 843.7 339 872.8 330C902 321 931 285 945.5 267L960 249L960 150L945.5 142C931 134 902 118 872.8 111.7C843.7 105.3 814.3 108.7 785.2 116.7C756 124.7 727 137.3 698 143.7C669 150 640 150 611 145.5C582 141 553 132 523.8 127.5C494.7 123 465.3 123 436.2 118.5C407 114 378 105 349 105C320 105 291 114 262 111.3C233 108.7 204 94.3 174.8 94.3C145.7 94.3 116.3 108.7 87.2 116.8C58 125 29 127 14.5 128L0 129Z" fill="#ededed"></path><path d="M0 363L14.5 371C29 379 58 395 87.2 383.3C116.3 371.7 145.7 332.3 174.8 327.8C204 323.3 233 353.7 262 367.2C291 380.7 320 377.3 349 358.5C378 339.7 407 305.3 436.2 297.2C465.3 289 494.7 307 523.8 335.8C553 364.7 582 404.3 611 411.5C640 418.7 669 393.3 698 380.7C727 368 756 368 785.2 380.7C814.3 393.3 843.7 418.7 872.8 418.7C902 418.7 931 393.3 945.5 380.7L960 368L960 247L945.5 265C931 283 902 319 872.8 328C843.7 337 814.3 319 785.2 306.5C756 294 727 287 698 296C669 305 640 330 611 318.3C582 306.7 553 258.3 523.8 235.8C494.7 213.3 465.3 216.7 436.2 227.3C407 238 378 256 349 271.3C320 286.7 291 299.3 262 288.7C233 278 204 244 174.8 248.5C145.7 253 116.3 296 87.2 308.5C58 321 29 303 14.5 294L0 285Z" fill="#d7d8f2"></path><path d="M0 541L14.5 541C29 541 58 541 87.2 541C116.3 541 145.7 541 174.8 541C204 541 233 541 262 541C291 541 320 541 349 541C378 541 407 541 436.2 541C465.3 541 494.7 541 523.8 541C553 541 582 541 611 541C640 541 669 541 698 541C727 541 756 541 785.2 541C814.3 541 843.7 541 872.8 541C902 541 931 541 945.5 541L960 541L960 366L945.5 378.7C931 391.3 902 416.7 872.8 416.7C843.7 416.7 814.3 391.3 785.2 378.7C756 366 727 366 698 378.7C669 391.3 640 416.7 611 409.5C582 402.3 553 362.7 523.8 333.8C494.7 305 465.3 287 436.2 295.2C407 303.3 378 337.7 349 356.5C320 375.3 291 378.7 262 365.2C233 351.7 204 321.3 174.8 325.8C145.7 330.3 116.3 369.7 87.2 381.3C58 393 29 377 14.5 369L0 361Z" fill="#adb5fa"></path></svg>