<svg id="visual" viewBox="0 0 900 600" width="900" height="600" xmlns="http://www.w3.org/2000/svg" xmlns:xlink="http://www.w3.org/1999/xlink" version="1.1"><g stroke-width="0.25" stroke-linejoin="bevel"><path d="M491 314L379 311L412 394Z" fill="#8b99ff" stroke="#f6f6f6"></path><path d="M412 394L463 431L491 314Z" fill="#9ba6ff" stroke="#f6f6f6"></path><path d="M491 314L403 216L379 311Z" fill="#a7afff" stroke="#f6f6f6"></path><path d="M280 387L400 485L412 394Z" fill="#a3acff" stroke="#f6f6f6"></path><path d="M412 394L400 485L463 431Z" fill="#9fa9ff" stroke="#f6f6f6"></path><path d="M403 216L310 237L379 311Z" fill="#a7afff" stroke="#f6f6f6"></path><path d="M379 311L280 387L412 394Z" fill="#aeb6ff" stroke="#f6f6f6"></path><path d="M273 287L280 387L379 311Z" fill="#97a3ff" stroke="#f6f6f6"></path><path d="M310 237L273 287L379 311Z" fill="#9fa9ff" stroke="#f6f6f6"></path><path d="M624 391L491 314L463 431Z" fill="#aab3ff" stroke="#f6f6f6"></path><path d="M624 391L610 338L491 314Z" fill="#b2b9ff" stroke="#f6f6f6"></path><path d="M491 314L524 162L403 216Z" fill="#a3acff" stroke="#f6f6f6"></path><path d="M400 485L511 512L463 431Z" fill="#8b99ff" stroke="#f6f6f6"></path><path d="M588 188L524 162L491 314Z" fill="#97a3ff" stroke="#f6f6f6"></path><path d="M403 216L391 66L310 237Z" fill="#97a3ff" stroke="#f6f6f6"></path><path d="M511 512L624 391L463 431Z" fill="#b2b9ff" stroke="#f6f6f6"></path><path d="M610 338L588 188L491 314Z" fill="#939fff" stroke="#f6f6f6"></path><path d="M667 282L588 188L610 338Z" fill="#b2b9ff" stroke="#f6f6f6"></path><path d="M280 387L273 478L400 485Z" fill="#939fff" stroke="#f6f6f6"></path><path d="M400 485L465 600L511 512Z" fill="#aab3ff" stroke="#f6f6f6"></path><path d="M223 373L273 478L280 387Z" fill="#aab3ff" stroke="#f6f6f6"></path><path d="M273 287L223 373L280 387Z" fill="#9ba6ff" stroke="#f6f6f6"></path><path d="M624 391L667 282L610 338Z" fill="#8f9cff" stroke="#f6f6f6"></path><path d="M595 600L592 528L511 512Z" fill="#aab3ff" stroke="#f6f6f6"></path><path d="M511 512L592 528L624 391Z" fill="#8b99ff" stroke="#f6f6f6"></path><path d="M624 391L730 425L667 282Z" fill="#aab3ff" stroke="#f6f6f6"></path><path d="M279 600L428 600L400 485Z" fill="#8b99ff" stroke="#f6f6f6"></path><path d="M428 600L465 600L400 485Z" fill="#a3acff" stroke="#f6f6f6"></path><path d="M620 99L524 162L588 188Z" fill="#a3acff" stroke="#f6f6f6"></path><path d="M620 99L491 71L524 162Z" fill="#939fff" stroke="#f6f6f6"></path><path d="M524 162L491 71L403 216Z" fill="#8b99ff" stroke="#f6f6f6"></path><path d="M491 71L391 66L403 216Z" fill="#9fa9ff" stroke="#f6f6f6"></path><path d="M204 182L165 273L273 287Z" fill="#97a3ff" stroke="#f6f6f6"></path><path d="M273 287L165 273L223 373Z" fill="#a7afff" stroke="#f6f6f6"></path><path d="M204 182L273 287L310 237Z" fill="#939fff" stroke="#f6f6f6"></path><path d="M223 373L196 481L273 478Z" fill="#9ba6ff" stroke="#f6f6f6"></path><path d="M265 77L204 182L310 237Z" fill="#8f9cff" stroke="#f6f6f6"></path><path d="M68 434L196 481L223 373Z" fill="#b2b9ff" stroke="#f6f6f6"></path><path d="M273 478L279 600L400 485Z" fill="#8f9cff" stroke="#f6f6f6"></path><path d="M719 206L620 99L588 188Z" fill="#9ba6ff" stroke="#f6f6f6"></path><path d="M196 481L279 600L273 478Z" fill="#aeb6ff" stroke="#f6f6f6"></path><path d="M465 600L595 600L511 512Z" fill="#b2b9ff" stroke="#f6f6f6"></path><path d="M673 539L730 425L624 391Z" fill="#8f9cff" stroke="#f6f6f6"></path><path d="M673 539L624 391L592 528Z" fill="#9fa9ff" stroke="#f6f6f6"></path><path d="M667 282L719 206L588 188Z" fill="#8f9cff" stroke="#f6f6f6"></path><path d="M391 66L265 77L310 237Z" fill="#8b99ff" stroke="#f6f6f6"></path><path d="M595 600L673 539L592 528Z" fill="#939fff" stroke="#f6f6f6"></path><path d="M836 280L719 206L667 282Z" fill="#aab3ff" stroke="#f6f6f6"></path><path d="M494 0L430 0L491 71Z" fill="#8f9cff" stroke="#f6f6f6"></path><path d="M491 71L430 0L391 66Z" fill="#97a3ff" stroke="#f6f6f6"></path><path d="M391 66L284 0L265 77Z" fill="#8b99ff" stroke="#f6f6f6"></path><path d="M618 0L494 0L491 71Z" fill="#8f9cff" stroke="#f6f6f6"></path><path d="M820 490L817 399L730 425Z" fill="#939fff" stroke="#f6f6f6"></path><path d="M595 600L672 600L673 539Z" fill="#9ba6ff" stroke="#f6f6f6"></path><path d="M88 167L73 318L165 273Z" fill="#97a3ff" stroke="#f6f6f6"></path><path d="M165 273L73 318L223 373Z" fill="#b2b9ff" stroke="#f6f6f6"></path><path d="M196 481L165 600L279 600Z" fill="#aeb6ff" stroke="#f6f6f6"></path><path d="M88 167L165 273L204 182Z" fill="#9fa9ff" stroke="#f6f6f6"></path><path d="M174 0L173 80L265 77Z" fill="#a3acff" stroke="#f6f6f6"></path><path d="M265 77L173 80L204 182Z" fill="#939fff" stroke="#f6f6f6"></path><path d="M430 0L284 0L391 66Z" fill="#97a3ff" stroke="#f6f6f6"></path><path d="M108 600L165 600L196 481Z" fill="#b2b9ff" stroke="#f6f6f6"></path><path d="M73 318L68 434L223 373Z" fill="#a7afff" stroke="#f6f6f6"></path><path d="M673 0L618 0L620 99Z" fill="#b2b9ff" stroke="#f6f6f6"></path><path d="M620 99L618 0L491 71Z" fill="#8f9cff" stroke="#f6f6f6"></path><path d="M173 80L88 167L204 182Z" fill="#9fa9ff" stroke="#f6f6f6"></path><path d="M820 490L730 425L673 539Z" fill="#a3acff" stroke="#f6f6f6"></path><path d="M730 425L817 399L667 282Z" fill="#aab3ff" stroke="#f6f6f6"></path><path d="M719 206L728 82L620 99Z" fill="#939fff" stroke="#f6f6f6"></path><path d="M811 77L728 82L719 206Z" fill="#aeb6ff" stroke="#f6f6f6"></path><path d="M68 434L69 491L196 481Z" fill="#8f9cff" stroke="#f6f6f6"></path><path d="M817 399L836 280L667 282Z" fill="#b2b9ff" stroke="#f6f6f6"></path><path d="M728 82L673 0L620 99Z" fill="#97a3ff" stroke="#f6f6f6"></path><path d="M836 280L829 210L719 206Z" fill="#97a3ff" stroke="#f6f6f6"></path><path d="M728 82L797 0L673 0Z" fill="#9ba6ff" stroke="#f6f6f6"></path><path d="M765 600L820 490L673 539Z" fill="#8b99ff" stroke="#f6f6f6"></path><path d="M817 399L900 316L836 280Z" fill="#b2b9ff" stroke="#f6f6f6"></path><path d="M69 491L108 600L196 481Z" fill="#aab3ff" stroke="#f6f6f6"></path><path d="M672 600L765 600L673 539Z" fill="#97a3ff" stroke="#f6f6f6"></path><path d="M284 0L174 0L265 77Z" fill="#8b99ff" stroke="#f6f6f6"></path><path d="M173 80L67 74L88 167Z" fill="#aeb6ff" stroke="#f6f6f6"></path><path d="M0 230L73 318L88 167Z" fill="#a3acff" stroke="#f6f6f6"></path><path d="M0 230L0 263L73 318Z" fill="#8b99ff" stroke="#f6f6f6"></path><path d="M73 318L0 424L68 434Z" fill="#8f9cff" stroke="#f6f6f6"></path><path d="M68 434L0 482L69 491Z" fill="#a3acff" stroke="#f6f6f6"></path><path d="M0 263L0 424L73 318Z" fill="#8b99ff" stroke="#f6f6f6"></path><path d="M69 491L0 600L108 600Z" fill="#97a3ff" stroke="#f6f6f6"></path><path d="M0 81L0 230L88 167Z" fill="#939fff" stroke="#f6f6f6"></path><path d="M108 0L67 74L173 80Z" fill="#a7afff" stroke="#f6f6f6"></path><path d="M829 210L811 77L719 206Z" fill="#a3acff" stroke="#f6f6f6"></path><path d="M0 424L0 482L68 434Z" fill="#939fff" stroke="#f6f6f6"></path><path d="M900 410L900 316L817 399Z" fill="#8b99ff" stroke="#f6f6f6"></path><path d="M836 280L900 175L829 210Z" fill="#a3acff" stroke="#f6f6f6"></path><path d="M829 210L900 175L811 77Z" fill="#8b99ff" stroke="#f6f6f6"></path><path d="M174 0L108 0L173 80Z" fill="#8b99ff" stroke="#f6f6f6"></path><path d="M820 490L900 410L817 399Z" fill="#9ba6ff" stroke="#f6f6f6"></path><path d="M900 496L900 410L820 490Z" fill="#a7afff" stroke="#f6f6f6"></path><path d="M900 600L900 496L820 490Z" fill="#8b99ff" stroke="#f6f6f6"></path><path d="M900 316L900 175L836 280Z" fill="#97a3ff" stroke="#f6f6f6"></path><path d="M900 0L797 0L811 77Z" fill="#a7afff" stroke="#f6f6f6"></path><path d="M811 77L797 0L728 82Z" fill="#8f9cff" stroke="#f6f6f6"></path><path d="M0 0L0 81L67 74Z" fill="#97a3ff" stroke="#f6f6f6"></path><path d="M67 74L0 81L88 167Z" fill="#aab3ff" stroke="#f6f6f6"></path><path d="M0 482L0 600L69 491Z" fill="#97a3ff" stroke="#f6f6f6"></path><path d="M765 600L900 600L820 490Z" fill="#aab3ff" stroke="#f6f6f6"></path><path d="M900 175L900 64L811 77Z" fill="#97a3ff" stroke="#f6f6f6"></path><path d="M108 0L0 0L67 74Z" fill="#939fff" stroke="#f6f6f6"></path><path d="M900 64L900 0L811 77Z" fill="#9fa9ff" stroke="#f6f6f6"></path></g></svg>