<svg id="visual" viewBox="0 0 960 540" width="960" height="540" xmlns="http://www.w3.org/2000/svg" xmlns:xlink="http://www.w3.org/1999/xlink" version="1.1"><rect x="0" y="0" width="960" height="540" fill="#ededed"></rect><path d="M0 223L22.8 221C45.7 219 91.3 215 137 211C182.7 207 228.3 203 274 204.8C319.7 206.7 365.3 214.3 411.2 206.8C457 199.3 503 176.7 548.8 167.2C594.7 157.7 640.3 161.3 686 169C731.7 176.7 777.3 188.3 823 186.5C868.7 184.7 914.3 169.3 937.2 161.7L960 154L960 0L937.2 0C914.3 0 868.7 0 823 0C777.3 0 731.7 0 686 0C640.3 0 594.7 0 548.8 0C503 0 457 0 411.2 0C365.3 0 319.7 0 274 0C228.3 0 182.7 0 137 0C91.3 0 45.7 0 22.8 0L0 0Z" fill="#e3e5ff"></path><path d="M0 148L22.8 145.5C45.7 143 91.3 138 137 133.7C182.7 129.3 228.3 125.7 274 125.2C319.7 124.7 365.3 127.3 411.2 126.7C457 126 503 122 548.8 130.5C594.7 139 640.3 160 686 161.7C731.7 163.3 777.3 145.7 823 136.5C868.7 127.3 914.3 126.7 937.2 126.3L960 126L960 0L937.2 0C914.3 0 868.7 0 823 0C777.3 0 731.7 0 686 0C640.3 0 594.7 0 548.8 0C503 0 457 0 411.2 0C365.3 0 319.7 0 274 0C228.3 0 182.7 0 137 0C91.3 0 45.7 0 22.8 0L0 0Z" fill="#d8dbff"></path><path d="M0 144L22.8 140.5C45.7 137 91.3 130 137 121.7C182.7 113.3 228.3 103.7 274 105.8C319.7 108 365.3 122 411.2 126.7C457 131.3 503 126.7 548.8 124.8C594.7 123 640.3 124 686 118C731.7 112 777.3 99 823 94.2C868.7 89.3 914.3 92.7 937.2 94.3L960 96L960 0L937.2 0C914.3 0 868.7 0 823 0C777.3 0 731.7 0 686 0C640.3 0 594.7 0 548.8 0C503 0 457 0 411.2 0C365.3 0 319.7 0 274 0C228.3 0 182.7 0 137 0C91.3 0 45.7 0 22.8 0L0 0Z" fill="#cdd1ff"></path><path d="M0 50L22.8 57.7C45.7 65.3 91.3 80.7 137 85C182.7 89.3 228.3 82.7 274 77C319.7 71.3 365.3 66.7 411.2 65.3C457 64 503 66 548.8 69.7C594.7 73.3 640.3 78.7 686 77.5C731.7 76.3 777.3 68.7 823 69.7C868.7 70.7 914.3 80.3 937.2 85.2L960 90L960 0L937.2 0C914.3 0 868.7 0 823 0C777.3 0 731.7 0 686 0C640.3 0 594.7 0 548.8 0C503 0 457 0 411.2 0C365.3 0 319.7 0 274 0C228.3 0 182.7 0 137 0C91.3 0 45.7 0 22.8 0L0 0Z" fill="#c2c7ff"></path><path d="M0 30L22.8 30.5C45.7 31 91.3 32 137 31.7C182.7 31.3 228.3 29.7 274 29.7C319.7 29.7 365.3 31.3 411.2 37.7C457 44 503 55 548.8 60.5C594.7 66 640.3 66 686 65.3C731.7 64.7 777.3 63.3 823 62.3C868.7 61.3 914.3 60.7 937.2 60.3L960 60L960 0L937.2 0C914.3 0 868.7 0 823 0C777.3 0 731.7 0 686 0C640.3 0 594.7 0 548.8 0C503 0 457 0 411.2 0C365.3 0 319.7 0 274 0C228.3 0 182.7 0 137 0C91.3 0 45.7 0 22.8 0L0 0Z" fill="#b6bdff"></path></svg>