<svg id="visual" viewBox="0 0 960 540" width="960" height="540" xmlns="http://www.w3.org/2000/svg" xmlns:xlink="http://www.w3.org/1999/xlink" version="1.1"><rect x="0" y="0" width="960" height="540" fill="#ededed"></rect><path d="M0 351L22.8 359.8C45.7 368.7 91.3 386.3 137 387C182.7 387.7 228.3 371.3 274 358.5C319.7 345.7 365.3 336.3 411.2 342.2C457 348 503 369 548.8 372.7C594.7 376.3 640.3 362.7 686 354.5C731.7 346.3 777.3 343.7 823 351.5C868.7 359.3 914.3 377.7 937.2 386.8L960 396L960 541L937.2 541C914.3 541 868.7 541 823 541C777.3 541 731.7 541 686 541C640.3 541 594.7 541 548.8 541C503 541 457 541 411.2 541C365.3 541 319.7 541 274 541C228.3 541 182.7 541 137 541C91.3 541 45.7 541 22.8 541L0 541Z" fill="#00c9ff"></path><path d="M0 360L22.8 370.8C45.7 381.7 91.3 403.3 137 414C182.7 424.7 228.3 424.3 274 416.8C319.7 409.3 365.3 394.7 411.2 389.2C457 383.7 503 387.3 548.8 386.2C594.7 385 640.3 379 686 383.8C731.7 388.7 777.3 404.3 823 408.8C868.7 413.3 914.3 406.7 937.2 403.3L960 400L960 541L937.2 541C914.3 541 868.7 541 823 541C777.3 541 731.7 541 686 541C640.3 541 594.7 541 548.8 541C503 541 457 541 411.2 541C365.3 541 319.7 541 274 541C228.3 541 182.7 541 137 541C91.3 541 45.7 541 22.8 541L0 541Z" fill="#00b8ff"></path><path d="M0 418L22.8 425C45.7 432 91.3 446 137 447.7C182.7 449.3 228.3 438.7 274 436.2C319.7 433.7 365.3 439.3 411.2 436.5C457 433.7 503 422.3 548.8 415.3C594.7 408.3 640.3 405.7 686 407.7C731.7 409.7 777.3 416.3 823 421.2C868.7 426 914.3 429 937.2 430.5L960 432L960 541L937.2 541C914.3 541 868.7 541 823 541C777.3 541 731.7 541 686 541C640.3 541 594.7 541 548.8 541C503 541 457 541 411.2 541C365.3 541 319.7 541 274 541C228.3 541 182.7 541 137 541C91.3 541 45.7 541 22.8 541L0 541Z" fill="#00a6ff"></path><path d="M0 442L22.8 449.7C45.7 457.3 91.3 472.7 137 476.7C182.7 480.7 228.3 473.3 274 472.8C319.7 472.3 365.3 478.7 411.2 480.8C457 483 503 481 548.8 477.7C594.7 474.3 640.3 469.7 686 467.5C731.7 465.3 777.3 465.7 823 464.2C868.7 462.7 914.3 459.3 937.2 457.7L960 456L960 541L937.2 541C914.3 541 868.7 541 823 541C777.3 541 731.7 541 686 541C640.3 541 594.7 541 548.8 541C503 541 457 541 411.2 541C365.3 541 319.7 541 274 541C228.3 541 182.7 541 137 541C91.3 541 45.7 541 22.8 541L0 541Z" fill="#0092ff"></path><path d="M0 496L22.8 495.8C45.7 495.7 91.3 495.3 137 497.5C182.7 499.7 228.3 504.3 274 503.5C319.7 502.7 365.3 496.3 411.2 495C457 493.7 503 497.3 548.8 496.2C594.7 495 640.3 489 686 488.3C731.7 487.7 777.3 492.3 823 491.5C868.7 490.7 914.3 484.3 937.2 481.2L960 478L960 541L937.2 541C914.3 541 868.7 541 823 541C777.3 541 731.7 541 686 541C640.3 541 594.7 541 548.8 541C503 541 457 541 411.2 541C365.3 541 319.7 541 274 541C228.3 541 182.7 541 137 541C91.3 541 45.7 541 22.8 541L0 541Z" fill="#007bff"></path></svg>